<svg id="Capa_1" enable-background="new 0 0 512 512" height="512" viewBox="0 0 512 512" width="512" xmlns="http://www.w3.org/2000/svg"><g><path d="m418.036 158.253 10.855-19.745c4.29-7.804 4.191-17.282-.262-24.994l-10.993-19.041c-4.453-7.712-12.611-12.537-21.514-12.724l-22.527-.472c-4.287-.09-8.482-1.261-12.196-3.405l-51.91-29.97c-3.714-2.144-6.826-5.192-9.047-8.859l-11.672-19.273c-4.613-7.617-12.871-12.27-21.776-12.27h-21.987c-8.905 0-17.163 4.653-21.776 12.27l-11.672 19.273c-2.221 3.668-5.333 6.715-9.047 8.859l-51.91 29.97c-3.714 2.144-7.909 3.315-12.196 3.405l-22.527.472c-8.903.187-17.062 5.011-21.514 12.724l-10.993 19.041c-4.453 7.712-4.552 17.19-.262 24.994l10.855 19.745c2.066 3.758 3.149 7.976 3.149 12.265v59.941c0 4.288-1.083 8.507-3.149 12.265l-10.855 19.743c-4.29 7.804-4.191 17.282.262 24.994l10.993 19.041c4.453 7.712 12.611 12.537 21.514 12.724l22.527.472c4.287.09 8.482 1.261 12.196 3.405l51.91 29.97c3.714 2.144 6.826 5.191 9.047 8.859l11.672 19.273c4.613 7.617 12.871 12.27 21.776 12.27h21.987c8.905 0 17.163-4.653 21.776-12.27l11.672-19.273c2.221-3.668 5.333-6.715 9.047-8.859l51.91-29.97c3.714-2.144 7.909-3.315 12.196-3.405l22.527-.472c8.903-.186 17.062-5.011 21.514-12.724l10.993-19.041c4.453-7.712 4.552-17.19.262-24.994l-10.855-19.745c-2.066-3.758-3.149-7.976-3.149-12.265v-59.941c0-4.287 1.084-8.506 3.149-12.263z" fill="#9dc6fb"/><path d="m418.036 242.722c-2.066-3.758-3.149-7.976-3.149-12.265v-59.941c0-4.288 1.083-8.507 3.149-12.265l10.855-19.745c4.29-7.804 4.191-17.282-.262-24.994l-10.993-19.041c-4.453-7.712-12.611-12.537-21.514-12.724l-22.527-.472c-4.287-.09-8.482-1.261-12.196-3.405l-51.91-29.97c-3.714-2.144-6.826-5.192-9.047-8.859l-11.672-19.271c-4.613-7.617-12.871-12.27-21.776-12.27h-21.987c-2.412 0-4.773.352-7.031 1.002 6.077 1.748 11.382 5.715 14.745 11.269l11.672 19.273c2.221 3.668 5.333 6.715 9.047 8.859l51.91 29.97c3.714 2.144 7.909 3.315 12.196 3.405l22.527.472c8.903.187 17.062 5.011 21.514 12.724l10.993 19.041c4.453 7.712 4.552 17.19.262 24.994l-10.855 19.745c-2.066 3.758-3.149 7.976-3.149 12.265v59.941c0 4.288 1.083 8.507 3.149 12.265l10.855 19.745c4.29 7.804 4.191 17.282-.262 24.994l-10.993 19.041c-4.453 7.712-12.611 12.537-21.514 12.723l-22.527.472c-4.287.09-8.482 1.261-12.196 3.405l-51.91 29.97c-3.714 2.144-6.826 5.192-9.047 8.86l-11.672 19.273c-3.363 5.554-8.668 9.521-14.745 11.269 2.258.649 4.619 1.002 7.031 1.002h21.987c8.905 0 17.163-4.653 21.776-12.27l11.672-19.273c2.221-3.668 5.333-6.715 9.047-8.86l51.91-29.97c3.714-2.144 7.909-3.315 12.196-3.405l22.527-.472c8.903-.186 17.062-5.011 21.514-12.723l10.993-19.041c4.452-7.712 4.552-17.19.262-24.994z" fill="#80b4fb"/><path d="m367.846 210.329c0-62.306-50.947-112.714-113.456-111.835-60.515.851-109.773 50.445-110.233 110.964-.246 32.271 13.18 61.406 34.829 81.968 8.578 8.148 13.313 19.543 13.313 31.374v34.35h127.402v-34.35c0-11.958 4.935-23.363 13.579-31.627 21.298-20.362 34.566-49.052 34.566-80.844z" fill="#f9ef63"/><path d="m254.391 98.494c-4.003.056-7.956.332-11.85.804 55.396 6.674 98.33 53.836 98.33 111.031 0 31.792-13.268 60.482-34.566 80.844-8.644 8.264-13.579 19.669-13.579 31.627v34.35h26.976v-34.35c0-11.958 4.935-23.363 13.579-31.627 21.298-20.362 34.566-49.052 34.566-80.844-.001-62.307-50.948-112.714-113.456-111.835z" fill="#f6e738"/><path d="m256 504.5c-39.34 0-72.388-29.581-76.73-68.68l-7.73-69.605c-.537-4.836 3.248-9.065 8.114-9.065h152.692c4.865 0 8.651 4.229 8.114 9.065l-7.73 69.605c-4.342 39.099-37.39 68.68-76.73 68.68z" fill="#738b95"/><path d="m332.346 357.15h-26.976c4.865 0 8.651 4.229 8.114 9.065l-7.73 69.605c-3.835 34.532-30.066 61.624-63.242 67.486 4.388.775 8.893 1.194 13.488 1.194 39.339 0 72.387-29.581 76.729-68.68l7.73-69.605c.538-4.836-3.247-9.065-8.113-9.065z" fill="#617881"/><path d="m424.608 239.11c-1.453-2.644-2.221-5.636-2.221-8.652v-59.94c0-3.017.768-6.009 2.221-8.651l10.854-19.745c5.519-10.039 5.389-22.438-.339-32.356l-10.993-19.04c-5.727-9.921-16.398-16.233-27.853-16.473l-22.526-.473c-3.017-.063-5.992-.894-8.604-2.401l-24.064-13.895c-3.587-2.071-8.174-.843-10.245 2.745-2.071 3.587-.842 8.174 2.745 10.245l24.065 13.896c4.794 2.767 10.254 4.291 15.788 4.406l22.526.473c6.241.131 12.057 3.57 15.177 8.976l10.993 19.041c3.121 5.405 3.191 12.16.185 17.63l-10.854 19.746c-2.667 4.851-4.076 10.341-4.076 15.877v59.94c0 5.536 1.409 11.026 4.076 15.878l10.854 19.744c3.007 5.47 2.937 12.226-.185 17.631l-10.993 19.041c-3.121 5.405-8.936 8.845-15.177 8.976l-22.526.472c-5.533.115-10.993 1.64-15.789 4.408l-30.447 17.579v-11.388c0-9.812 4.104-19.363 11.262-26.206 23.785-22.74 36.884-53.376 36.884-86.265 0-32.195-12.627-62.377-35.555-84.985-22.924-22.604-53.314-34.834-85.507-34.349-31.239.438-60.663 12.982-82.853 35.319-22.188 22.336-34.537 51.843-34.775 83.087-.128 16.875 3.198 33.212 9.888 48.558 1.654 3.796 6.073 5.535 9.872 3.878 3.797-1.655 5.533-6.075 3.878-9.872-5.844-13.407-8.75-27.689-8.638-42.45.429-56.291 46.562-102.73 102.839-103.521 28.264-.382 54.763 10.31 74.765 30.032 20.046 19.766 31.086 46.154 31.086 74.304 0 28.754-11.453 55.54-32.249 75.423-10.103 9.658-15.896 23.161-15.896 37.048v26.85h-48.701v-87.106c12.805-3.334 22.286-14.995 22.286-28.83 0-4.143-3.357-7.5-7.5-7.5s-7.5 3.357-7.5 7.5c0 8.153-6.633 14.786-14.786 14.786s-14.786-6.633-14.786-14.786c0-4.143-3.357-7.5-7.5-7.5s-7.5 3.357-7.5 7.5c0 13.834 9.481 25.496 22.286 28.83v87.106h-48.701v-26.851c0-13.949-5.703-27.366-15.647-36.811-3.289-3.124-6.426-6.524-9.323-10.106-2.605-3.22-7.328-3.72-10.548-1.114-3.221 2.605-3.72 7.327-1.114 10.548 3.309 4.09 6.893 7.975 10.655 11.549 6.977 6.626 10.978 16.079 10.978 25.935v11.386l-30.448-17.579c-4.795-2.768-10.255-4.292-15.788-4.407l-22.526-.472c-6.24-.131-12.056-3.57-15.177-8.976l-10.993-19.041c-3.12-5.405-3.191-12.161-.185-17.631l10.854-19.743c2.667-4.852 4.077-10.342 4.077-15.879v-59.94c0-5.537-1.41-11.027-4.077-15.878l-10.854-19.745c-3.007-5.469-2.936-12.225.185-17.63l10.993-19.041c3.121-5.405 8.937-8.845 15.177-8.976l22.526-.473c5.535-.115 10.995-1.641 15.789-4.408l51.91-29.97c4.794-2.769 8.844-6.734 11.712-11.47l11.672-19.271c3.233-5.34 9.12-8.656 15.361-8.656h21.986c6.241 0 12.128 3.316 15.361 8.655l11.672 19.273c2.867 4.733 6.917 8.699 11.713 11.47l1.702.982c3.584 2.069 8.173.84 10.245-2.747 2.07-3.587.841-8.174-2.747-10.245l-1.7-.98c-2.613-1.51-4.82-3.671-6.383-6.25l-11.672-19.273c-5.935-9.799-16.737-15.886-28.192-15.886h-21.986c-11.455 0-22.257 6.087-28.191 15.886l-11.672 19.271c-1.562 2.58-3.77 4.741-6.382 6.25l-51.91 29.97c-2.612 1.508-5.587 2.339-8.604 2.402l-22.526.473c-11.452.239-22.125 6.552-27.853 16.472l-10.993 19.041c-5.728 9.921-5.857 22.318-.339 32.356l10.854 19.746c1.453 2.643 2.222 5.634 2.222 8.65v59.94c0 3.017-.769 6.008-2.222 8.651l-10.854 19.744c-5.519 10.038-5.389 22.437.339 32.357l10.993 19.041c5.729 9.921 16.4 16.232 27.853 16.472l22.526.472c3.016.063 5.99.895 8.604 2.402l34.731 20.052h-1.928c-4.449 0-8.703 1.901-11.671 5.217s-4.388 7.754-3.896 12.177l2.102 18.933h-2.181c-4.143 0-7.5 3.357-7.5 7.5s3.357 7.5 7.5 7.5h3.846l2.482 22.35h-1.773c-4.143 0-7.5 3.357-7.5 7.5s3.357 7.5 7.5 7.5h3.456c1.03 7.867 3.117 15.365 6.107 22.358-3.963.201-7.114 3.477-7.114 7.49 0 4.143 3.357 7.5 7.5 7.5h7.92c15.369 22.1 40.924 36.327 69.567 36.327 5.447 0 10.938-.533 16.317-1.586 4.065-.795 6.716-4.735 5.921-8.8s-4.722-6.72-8.8-5.921c-4.433.868-8.955 1.307-13.438 1.307-19.624 0-37.485-8.115-50.216-21.326h100.393c-3.444 3.567-7.292 6.792-11.502 9.604-3.444 2.301-4.371 6.958-2.07 10.402s6.958 4.372 10.402 2.07c8.946-5.976 16.548-13.485 22.531-22.076h7.949c4.143 0 7.5-3.357 7.5-7.5 0-4.019-3.16-7.299-7.131-7.491 3.026-7.062 5.103-14.574 6.124-22.358h3.457c4.143 0 7.5-3.357 7.5-7.5s-3.357-7.5-7.5-7.5h-1.774l2.482-22.35h3.847c4.143 0 7.5-3.357 7.5-7.5s-3.357-7.5-7.5-7.5h-2.181l2.103-18.933c.491-4.423-.929-8.861-3.896-12.177s-7.222-5.217-11.671-5.217h-1.929l34.729-20.051c2.614-1.509 5.589-2.34 8.604-2.403l22.526-.472c11.453-.239 22.126-6.552 27.853-16.472l10.993-19.041c5.728-9.92 5.857-22.318.339-32.357zm-107.408 221.564h-122.42c-3.71-6.811-6.327-14.334-7.604-22.349h137.649c-1.266 7.913-3.864 15.456-7.625 22.349zm9.371-37.349h-141.142l-2.482-22.35h146.106zm6.27-58.455c.198.222.173.443.165.517l-2.287 20.589h-149.438l-2.286-20.589c-.008-.073-.033-.295.165-.517.198-.221.421-.221.494-.221h152.692c.074 0 .297 0 .495.221z"/></g></svg>